<svg xmlns="http://www.w3.org/2000/svg" viewBox="0 0 37 37" shape-rendering="crispEdges" role="img" aria-label="QR code that opens the live noise map" xmlns:c2pa="http://c2pa.org/manifest"><metadata><c2pa:manifest>AAAWgmp1bWIAAAAeanVtZGMycGEAEQAQgAAAqgA4m3EDYzJwYQAAABZcanVtYgAAAEdqdW1kYzJtYQARABCAAACqADibcQN1cm46YzJwYTo3NjFkYTNkMC01ZTdkLTRjY2ItYjM0Mi05ZjRjMzdhMzY1ZDAAAAADl2p1bWIAAAApanVtZGMyYXMAEQAQgAAAqgA4m3EDYzJwYS5hc3NlcnRpb25zAAAAALxqdW1iAAAARGp1bWRjYm9yABEAEIAAAKoAOJtxE2MycGEuaW5ncmVkaWVudC52MwAAAAAYYzJzaIgiZ//32oBCzzNTqHUyWI0AAABwY2JvcqNpZGM6Zm9ybWF0bWltYWdlL3N2Zyt4bWxqaW5zdGFuY2VJRHgseG1wOmlpZDowNjA2MzVmYi04MjUyLTQ5YjEtOTZlMi0xMTFmMzJjZjFhMjJscmVsYXRpb25zaGlwaHBhcmVudE9mAAAB4mp1bWIAAABBanVtZGNib3IAEQAQgAAAqgA4m3ETYzJwYS5hY3Rpb25zLnYyAAAAABhjMnNon4XnO/xE8dzy1K/Ex+zcXgAAAZljYm9yomdhY3Rpb25zgqJmYWN0aW9ua2MycGEub3BlbmVkanBhcmFtZXRlcnOha2luZ3JlZGllbnRzgaJjdXJseC1zZWxmI2p1bWJmPWMycGEuYXNzZXJ0aW9ucy9jMnBhLmluZ3JlZGllbnQudjNkaGFzaFggU1jOUtA8afiakPprZ+6dX4XOj10aIGG+Tl0vxXqIGqSkZmFjdGlvbngdY29tLmFudGhyb3BpYy5jbGF1ZGUucHJvdmlkZWRqcGFyYW1ldGVyc6F4H2NvbS5hbnRocm9waWMub3JpZ2luLWNvbmZpZGVuY2VndW5rbm93bmtkZXNjcmlwdGlvbnhmQ2xhdWRlIHByb3ZpZGVkIHRoaXMgZmlsZSBhdCB0aGUgcmVxdWVzdCBvZiBhIHVzZXIgYW5kIG1heSBoYXZlIGNyZWF0ZWQgb3IgbW9kaWZpZWQgdGhlIGZpbGUgY29udGVudHMubXNvZnR3YXJlQWdlbnShZG5hbWVmQ2xhdWRlcmFsbEFjdGlvbnNJbmNsdWRlZPUAAADIanVtYgAAAEBqdW1kY2JvcgARABCAAACqADibcRNjMnBhLmhhc2guZGF0YQAAAAAYYzJzaEmSYlHOlFaYu7yqnxBXZiwAAACAY2JvcqVjYWxnZnNoYTI1NmNwYWRNAAAAAAAAAAAAAAAAAGRoYXNoWCBn9x2wvReesahR1hghKx9VSfFqW83MCRVNb56M0LbUImRuYW1lbmp1bWJmIG1hbmlmZXN0amV4Y2x1c2lvbnOBomVzdGFydBjWZmxlbmd0aBkeBAAAAj5qdW1iAAAAJ2p1bWRjMmNsABEAEIAAAKoAOJtxA2MycGEuY2xhaW0udjIAAAACD2Nib3KlY2FsZ2ZzaGEyNTZpc2lnbmF0dXJleE1zZWxmI2p1bWJmPS9jMnBhL3VybjpjMnBhOjc2MWRhM2QwLTVlN2QtNGNjYi1iMzQyLTlmNGMzN2EzNjVkMC9jMnBhLnNpZ25hdHVyZWppbnN0YW5jZUlEeCx4bXA6aWlkOjY5YjQxNDM5LTA1MzItNDIyNi05OTY0LWVjYWE4YmU3ZmMyOHJjcmVhdGVkX2Fzc2VydGlvbnODomN1cmx4LXNlbGYjanVtYmY9YzJwYS5hc3NlcnRpb25zL2MycGEuaW5ncmVkaWVudC52M2RoYXNoWCBTWM5S0Dxp+JqQ+mtn7p1fhc6PXRogYb5OXS/FeogapKJjdXJseCpzZWxmI2p1bWJmPWMycGEuYXNzZXJ0aW9ucy9jMnBhLmFjdGlvbnMudjJkaGFzaFggluxUy4wvZ75j3eEG+3H/G5PH732kx2TARSfo3DtpXCOiY3VybHgpc2VsZiNqdW1iZj1jMnBhLmFzc2VydGlvbnMvYzJwYS5oYXNoLmRhdGFkaGFzaFgg36XAQKUk3/QweEFOGax5YQVx+ZlHgPaJdMw0/k/Hj9x0Y2xhaW1fZ2VuZXJhdG9yX2luZm+jZG5hbWVvQW50aHJvcGljIEZpbGVzZ3ZlcnNpb25lMS4wLjBrc3BlY1ZlcnNpb25lMi40LjAAABA4anVtYgAAAChqdW1kYzJjcwARABCAAACqADibcQNjMnBhLnNpZ25hdHVyZQAAABAIY2JvctKEWQISogEmGCFZAgowggIGMIIBjaADAgECAhRA5aAK7sI50L64g/oGQgU9Z1UTADAKBggqhkjOPQQDAzBJMRcwFQYDVQQKEw5BbnRocm9waWMsIFBCQzEuMCwGA1UEAxMlQW50aHJvcGljIENvbnRlbnQgQ3JlZGVudGlhbHMgUm9vdCBDQTAeFw0yNjA4MDcxODQzNTZaFw0yODA4MDYxOTQzNTZaMEQxFzAVBgNVBAoTDkFudGhyb3BpYywgUEJDMSkwJwYDVQQDEyBBbnRocm9waWMgQ2xhdWRlIENvbnRlbnQgU2lnbmluZzBZMBMGByqGSM49AgEGCCqGSM49AwEHA0IABJh6CmvLUBgFFNU0vUKlOVtE6djd17L5SuwX0LemFisBM3dkd/3cyjxFA3Qo5S46fX0/ihY0VZ7mfb9KF703t5OjWDBWMA4GA1UdDwEB/wQEAwIHgDAVBgNVHSUEDjAMBgorBgEEAYPoXgIBMAwGA1UdEwEB/wQCMAAwHwYDVR0jBBgwFoAUzlHiBIFOZFsj+OPEz5o+nMHXXMIwCgYIKoZIzj0EAwMDZwAwZAIwMXMdFJ4BetLLVY7ORuE9noqbbAZOZn/aArXyTwFAZfKrPzxF2vPoJNf1+UCdg1XGAjBwX1zd9WGqYkqmL5SFqw1QySjr1zJfpJM9+1rdDwSPLMOPOjKuiXjoU/pUUeG9RwmhY3BhZFkNngAAAAAAAAAAAAAAAAAAAAAAAAAAAAAAAAAAAAAAAAAAAAAAAAAAAAAAAAAAAAAAAAAAAAAAAAAAAAAAAAAAAAAAAAAAAAAAAAAAAAAAAAAAAAAAAAAAAAAAAAAAAAAAAAAAAAAAAAAAAAAAAAAAAAAAAAAAAAAAAAAAAAAAAAAAAAAAAAAAAAAAAAAAAAAAAAAAAAAAAAAAAAAAAAAAAAAAAAAAAAAAAAAAAAAAAAAAAAAAAAAAAAAAAAAAAAAAAAAAAAAAAAAAAAAAAAAAAAAAAAAAAAAAAAAAAAAAAAAAAAAAAAAAAAAAAAAAAAAAAAAAAAAAAAAAAAAAAAAAAAAAAAAAAAAAAAAAAAAAAAAAAAAAAAAAAAAAAAAAAAAAAAAAAAAAAAAAAAAAAAAAAAAAAAAAAAAAAAAAAAAAAAAAAAAAAAAAAAAAAAAAAAAAAAAAAAAAAAAAAAAAAAAAAAAAAAAAAAAAAAAAAAAAAAAAAAAAAAAAAAAAAAAAAAAAAAAAAAAAAAAAAAAAAAAAAAAAAAAAAAAAAAAAAAAAAAAAAAAAAAAAAAAAAAAAAAAAAAAAAAAAAAAAAAAAAAAAAAAAAAAAAAAAAAAAAAAAAAAAAAAAAAAAAAAAAAAAAAAAAAAAAAAAAAAAAAAAAAAAAAAAAAAAAAAAAAAAAAAAAAAAAAAAAAAAAAAAAAAAAAAAAAAAAAAAAAAAAAAAAAAAAAAAAAAAAAAAAAAAAAAAAAAAAAAAAAAAAAAAAAAAAAAAAAAAAAAAAAAAAAAAAAAAAAAAAAAAAAAAAAAAAAAAAAAAAAAAAAAAAAAAAAAAAAAAAAAAAAAAAAAAAAAAAAAAAAAAAAAAAAAAAAAAAAAAAAAAAAAAAAAAAAAAAAAAAAAAAAAAAAAAAAAAAAAAAAAAAAAAAAAAAAAAAAAAAAAAAAAAAAAAAAAAAAAAAAAAAAAAAAAAAAAAAAAAAAAAAAAAAAAAAAAAAAAAAAAAAAAAAAAAAAAAAAAAAAAAAAAAAAAAAAAAAAAAAAAAAAAAAAAAAAAAAAAAAAAAAAAAAAAAAAAAAAAAAAAAAAAAAAAAAAAAAAAAAAAAAAAAAAAAAAAAAAAAAAAAAAAAAAAAAAAAAAAAAAAAAAAAAAAAAAAAAAAAAAAAAAAAAAAAAAAAAAAAAAAAAAAAAAAAAAAAAAAAAAAAAAAAAAAAAAAAAAAAAAAAAAAAAAAAAAAAAAAAAAAAAAAAAAAAAAAAAAAAAAAAAAAAAAAAAAAAAAAAAAAAAAAAAAAAAAAAAAAAAAAAAAAAAAAAAAAAAAAAAAAAAAAAAAAAAAAAAAAAAAAAAAAAAAAAAAAAAAAAAAAAAAAAAAAAAAAAAAAAAAAAAAAAAAAAAAAAAAAAAAAAAAAAAAAAAAAAAAAAAAAAAAAAAAAAAAAAAAAAAAAAAAAAAAAAAAAAAAAAAAAAAAAAAAAAAAAAAAAAAAAAAAAAAAAAAAAAAAAAAAAAAAAAAAAAAAAAAAAAAAAAAAAAAAAAAAAAAAAAAAAAAAAAAAAAAAAAAAAAAAAAAAAAAAAAAAAAAAAAAAAAAAAAAAAAAAAAAAAAAAAAAAAAAAAAAAAAAAAAAAAAAAAAAAAAAAAAAAAAAAAAAAAAAAAAAAAAAAAAAAAAAAAAAAAAAAAAAAAAAAAAAAAAAAAAAAAAAAAAAAAAAAAAAAAAAAAAAAAAAAAAAAAAAAAAAAAAAAAAAAAAAAAAAAAAAAAAAAAAAAAAAAAAAAAAAAAAAAAAAAAAAAAAAAAAAAAAAAAAAAAAAAAAAAAAAAAAAAAAAAAAAAAAAAAAAAAAAAAAAAAAAAAAAAAAAAAAAAAAAAAAAAAAAAAAAAAAAAAAAAAAAAAAAAAAAAAAAAAAAAAAAAAAAAAAAAAAAAAAAAAAAAAAAAAAAAAAAAAAAAAAAAAAAAAAAAAAAAAAAAAAAAAAAAAAAAAAAAAAAAAAAAAAAAAAAAAAAAAAAAAAAAAAAAAAAAAAAAAAAAAAAAAAAAAAAAAAAAAAAAAAAAAAAAAAAAAAAAAAAAAAAAAAAAAAAAAAAAAAAAAAAAAAAAAAAAAAAAAAAAAAAAAAAAAAAAAAAAAAAAAAAAAAAAAAAAAAAAAAAAAAAAAAAAAAAAAAAAAAAAAAAAAAAAAAAAAAAAAAAAAAAAAAAAAAAAAAAAAAAAAAAAAAAAAAAAAAAAAAAAAAAAAAAAAAAAAAAAAAAAAAAAAAAAAAAAAAAAAAAAAAAAAAAAAAAAAAAAAAAAAAAAAAAAAAAAAAAAAAAAAAAAAAAAAAAAAAAAAAAAAAAAAAAAAAAAAAAAAAAAAAAAAAAAAAAAAAAAAAAAAAAAAAAAAAAAAAAAAAAAAAAAAAAAAAAAAAAAAAAAAAAAAAAAAAAAAAAAAAAAAAAAAAAAAAAAAAAAAAAAAAAAAAAAAAAAAAAAAAAAAAAAAAAAAAAAAAAAAAAAAAAAAAAAAAAAAAAAAAAAAAAAAAAAAAAAAAAAAAAAAAAAAAAAAAAAAAAAAAAAAAAAAAAAAAAAAAAAAAAAAAAAAAAAAAAAAAAAAAAAAAAAAAAAAAAAAAAAAAAAAAAAAAAAAAAAAAAAAAAAAAAAAAAAAAAAAAAAAAAAAAAAAAAAAAAAAAAAAAAAAAAAAAAAAAAAAAAAAAAAAAAAAAAAAAAAAAAAAAAAAAAAAAAAAAAAAAAAAAAAAAAAAAAAAAAAAAAAAAAAAAAAAAAAAAAAAAAAAAAAAAAAAAAAAAAAAAAAAAAAAAAAAAAAAAAAAAAAAAAAAAAAAAAAAAAAAAAAAAAAAAAAAAAAAAAAAAAAAAAAAAAAAAAAAAAAAAAAAAAAAAAAAAAAAAAAAAAAAAAAAAAAAAAAAAAAAAAAAAAAAAAAAAAAAAAAAAAAAAAAAAAAAAAAAAAAAAAAAAAAAAAAAAAAAAAAAAAAAAAAAAAAAAAAAAAAAAAAAAAAAAAAAAAAAAAAAAAAAAAAAAAAAAAAAAAAAAAAAAAAAAAAAAAAAAAAAAAAAAAAAAAAAAAAAAAAAAAAAAAAAAAAAAAAAAAAAAAAAAAAAAAAAAAAAAAAAAAAAAAAAAAAAAAAAAAAAAAAAAAAAAAAAAAAAAAAAAAAAAAAAAAAAAAAAAAAAAAAAAAAAAAAAAAAAAAAAAAAAAAAAAAAAAAAAAAAAAAAAAAAAAAAAAAAAAAAAAAAAAAAAAAAAAAAAAAAAAAAAAAAAAAAAAAAAAAAAAAAAAAAAAAAAAAAAAAAAAAAAAAAAAAAAAAAAAAAAAAAAAAAAAAAAAAAAAAAAAAAAAAAAAAAAAAAAAAAAAAAAAAAAAAAAAAAAAAAAAAAAAAAAAAAAAAAAAAAAAAAAAAAAAAAAAAAAAAAAAAAAAAAAAAAAAAAAAAAAAAAAAAAAAAAAAAAAAAAAAAAAAAAAAAAAAAAAAAAAAAAAAAAAAAAAAAAAAAAAAAAAAAAAAAAAAAAAAAAAAAAAAAAAAAAAAAAAAAAAAAAAAAAAAAAAAAAAAAAAAAAAAAAAAAAAAAAAAAAAAAAAAAAAAAAAAAAAAAAAAAAAAAAAAAAAAAAAAAAAAAAAAAAAAAAAAAAAAAAAAAAAAAAAAAAAAAAAAAAAAAAAAAAAAAAAAAAAAAAAAAAAAAAAAAAAAAAAAAAAAAAAAAAAAAAAAAAAAAAAAAAAAAAAAAAAAAAAAAAAAAAAAAAAAAAAAAAAAAAAAAAAAAAAAAAAAAAAAAAAAAAAAAAAAAAAAAAAAAAAAAAAAAAAAAAAAAAAAAAAAAAAAAAAAAAAAAAAAAAAAAAAAAAAAAAAAAAAAAAAAAAAAAAAAAAAAAAAAAAAAAAAAAAAAAAAAAAAAAAAAAAAAAAAAAAAAAAAAAAAAAAAAAAAAAAAAAAAAAAAAAAAAAAAAAAAAAAAAAAAAAAAAAAAAAAAAAAAAAAAAAAAAAAAAAAAAAAAAAAAAAAAAAAAAAAAAAAAAAAAAAAAAAAAAAAAAAAAAAAAAAAAAAAAAAAAAAAAAAAAAAAAAAAAAAAAAAAAAAAAAAAAAAAAAAAAAAAAAAAAAAAAAAAAAAAAAAAAAAAAAAAAAAAAAAAAAAAAAAAAAAAAAAAAAAAAAAAAAAAAAAAAAAAAAAAAAAAAAAAAAAAAAAAAAAAAAAAAAAAAAAAAAAAAAAAAAAAAAAAAAAAAAAAAAAAAAAAAAAAAAAAAAAAAAAAAAAAAAAAAAAAAAAAAAAAAAAAAAAAAAAAAAAAAAAAAAAAAAAAAAAAAAAAAAAAAAAAAAAAAAAAAAAAAAAAAAAAAAAAAAAAAAAAAAAAAAAAAAAAAAAAAAAAAAAAAAAAAAAAAAAAAAAAAAAAAAAAAAAAAAAAAAAAAAAAAAAAAAAAAAAAAAAAAAAAAAAAAAAAAAAAAAAAAAAAAAAAAAAAAAAAAAAAAAAAAAAAAAAAAAAAAAAAAAAAAAAAAAAAAAAAAAAAAAAAAAAAAAAAAAAAAAAAAAAAAAAAAAAAAAAAAAAAAAAAAAAAAAAAAAAAAAAAAAAAAAAAAAAAAAAAAAAAAAAAAAAAAAAAAAAAAAAAAAAAAAAAAAAAAAAAAAAAAAAAAAAAAAAAAAAAAAAAAAAAAAAAAAAAAAAAAAAAAAAAAAAAAAAAAAAPZYQCrTEzyPfEyOVz3USBqieRbAlXbIm64wIolILuKbFPLk24BZEEd7Z/6xgTP9S1mW2DsRc6BSMM06u4TI4CaXdI4=</c2pa:manifest></metadata><rect width="37" height="37" fill="#fff"/><path d="M4,4h7v1h-7zM12,4h2v1h-2zM15,4h2v1h-2zM19,4h2v1h-2zM23,4h2v1h-2zM26,4h7v1h-7zM4,5h1v1h-1zM10,5h1v1h-1zM12,5h1v1h-1zM18,5h2v1h-2zM24,5h1v1h-1zM26,5h1v1h-1zM32,5h1v1h-1zM4,6h1v1h-1zM6,6h3v1h-3zM10,6h1v1h-1zM13,6h1v1h-1zM15,6h1v1h-1zM17,6h3v1h-3zM23,6h1v1h-1zM26,6h1v1h-1zM28,6h3v1h-3zM32,6h1v1h-1zM4,7h1v1h-1zM6,7h3v1h-3zM10,7h1v1h-1zM12,7h1v1h-1zM14,7h2v1h-2zM20,7h2v1h-2zM24,7h1v1h-1zM26,7h1v1h-1zM28,7h3v1h-3zM32,7h1v1h-1zM4,8h1v1h-1zM6,8h3v1h-3zM10,8h1v1h-1zM13,8h1v1h-1zM15,8h3v1h-3zM23,8h1v1h-1zM26,8h1v1h-1zM28,8h3v1h-3zM32,8h1v1h-1zM4,9h1v1h-1zM10,9h1v1h-1zM14,9h1v1h-1zM16,9h1v1h-1zM18,9h1v1h-1zM21,9h4v1h-4zM26,9h1v1h-1zM32,9h1v1h-1zM4,10h7v1h-7zM12,10h1v1h-1zM14,10h1v1h-1zM16,10h1v1h-1zM18,10h1v1h-1zM20,10h1v1h-1zM22,10h1v1h-1zM24,10h1v1h-1zM26,10h7v1h-7zM12,11h1v1h-1zM14,11h2v1h-2zM17,11h2v1h-2zM21,11h2v1h-2zM4,12h1v1h-1zM6,12h2v1h-2zM9,12h3v1h-3zM17,12h2v1h-2zM20,12h4v1h-4zM26,12h1v1h-1zM29,12h1v1h-1zM31,12h2v1h-2zM4,13h3v1h-3zM11,13h1v1h-1zM14,13h1v1h-1zM19,13h10v1h-10zM32,13h1v1h-1zM6,14h1v1h-1zM10,14h2v1h-2zM14,14h2v1h-2zM18,14h2v1h-2zM26,14h1v1h-1zM30,14h2v1h-2zM5,15h2v1h-2zM11,15h1v1h-1zM15,15h5v1h-5zM26,15h2v1h-2zM32,15h1v1h-1zM4,16h2v1h-2zM8,16h1v1h-1zM10,16h2v1h-2zM13,16h2v1h-2zM21,16h1v1h-1zM24,16h1v1h-1zM29,16h2v1h-2zM6,17h1v1h-1zM9,17h1v1h-1zM12,17h3v1h-3zM16,17h2v1h-2zM21,17h1v1h-1zM23,17h1v1h-1zM26,17h1v1h-1zM30,17h3v1h-3zM4,18h1v1h-1zM7,18h1v1h-1zM10,18h1v1h-1zM12,18h1v1h-1zM18,18h1v1h-1zM22,18h3v1h-3zM30,18h3v1h-3zM5,19h5v1h-5zM12,19h1v1h-1zM14,19h1v1h-1zM16,19h2v1h-2zM20,19h1v1h-1zM27,19h1v1h-1zM31,19h1v1h-1zM5,20h4v1h-4zM10,20h2v1h-2zM14,20h3v1h-3zM19,20h1v1h-1zM22,20h4v1h-4zM27,20h3v1h-3zM31,20h1v1h-1zM5,21h1v1h-1zM7,21h1v1h-1zM11,21h1v1h-1zM13,21h1v1h-1zM17,21h1v1h-1zM19,21h2v1h-2zM24,21h1v1h-1zM27,21h1v1h-1zM29,21h3v1h-3zM4,22h1v1h-1zM6,22h3v1h-3zM10,22h1v1h-1zM12,22h2v1h-2zM15,22h2v1h-2zM19,22h4v1h-4zM24,22h1v1h-1zM27,22h2v1h-2zM30,22h1v1h-1zM6,23h2v1h-2zM11,23h1v1h-1zM16,23h1v1h-1zM19,23h5v1h-5zM25,23h4v1h-4zM30,23h1v1h-1zM5,24h2v1h-2zM8,24h7v1h-7zM17,24h1v1h-1zM20,24h3v1h-3zM24,24h7v1h-7zM12,25h1v1h-1zM14,25h1v1h-1zM17,25h2v1h-2zM20,25h1v1h-1zM24,25h1v1h-1zM28,25h5v1h-5zM4,26h7v1h-7zM12,26h1v1h-1zM14,26h1v1h-1zM16,26h2v1h-2zM21,26h4v1h-4zM26,26h1v1h-1zM28,26h2v1h-2zM31,26h1v1h-1zM4,27h1v1h-1zM10,27h1v1h-1zM12,27h1v1h-1zM15,27h2v1h-2zM19,27h2v1h-2zM24,27h1v1h-1zM28,27h2v1h-2zM31,27h2v1h-2zM4,28h1v1h-1zM6,28h3v1h-3zM10,28h1v1h-1zM13,28h3v1h-3zM18,28h5v1h-5zM24,28h5v1h-5zM30,28h2v1h-2zM4,29h1v1h-1zM6,29h3v1h-3zM10,29h1v1h-1zM12,29h1v1h-1zM14,29h1v1h-1zM16,29h1v1h-1zM18,29h3v1h-3zM25,29h1v1h-1zM27,29h3v1h-3zM32,29h1v1h-1zM4,30h1v1h-1zM6,30h3v1h-3zM10,30h1v1h-1zM12,30h1v1h-1zM15,30h1v1h-1zM18,30h1v1h-1zM21,30h2v1h-2zM24,30h1v1h-1zM27,30h1v1h-1zM30,30h1v1h-1zM32,30h1v1h-1zM4,31h1v1h-1zM10,31h1v1h-1zM14,31h2v1h-2zM20,31h1v1h-1zM22,31h1v1h-1zM24,31h6v1h-6zM31,31h1v1h-1zM4,32h7v1h-7zM12,32h4v1h-4zM18,32h2v1h-2zM22,32h3v1h-3zM28,32h1v1h-1zM31,32h1v1h-1z" fill="#000"/></svg>