<svg xmlns="http://www.w3.org/2000/svg" viewBox="0 0 1200 180" preserveAspectRatio="none" width="100%" height="100%">
  <defs>
    <linearGradient id="light-bg" x1="0%" y1="0%" x2="0%" y2="100%">
      <stop offset="0%" stop-color="#64748b" stop-opacity="0.15"/>
      <stop offset="100%" stop-color="#ffffff" stop-opacity="0"/>
    </linearGradient>
    <linearGradient id="light-fg" x1="0%" y1="0%" x2="0%" y2="100%">
      <stop offset="0%" stop-color="#0f172a" stop-opacity="0.2"/>
      <stop offset="100%" stop-color="#ffffff" stop-opacity="0"/>
    </linearGradient>
  </defs>

  <path fill="url(#light-bg)" d="M0,180 L0,120 C90,120 130,50 200,50 C270,50 310,110 390,90 C470,70 510,20 600,20 C690,20 740,110 830,80 C920,50 970,10 1050,10 C1130,10 1170,80 1200,60 L1200,180 Z"/>
  <path fill="none" stroke="#94a3b8" stroke-width="1.5" d="M0,120 C90,120 130,50 200,50 C270,50 310,110 390,90 C470,70 510,20 600,20 C690,20 740,110 830,80 C920,50 970,10 1050,10 C1130,10 1170,80 1200,60"/>

  <path fill="url(#light-fg)" d="M0,180 L0,145 C70,145 110,95 170,95 C230,95 270,135 340,115 C410,95 450,45 530,45 C610,45 650,125 730,100 C810,75 860,30 930,30 C1000,30 1050,100 1120,85 C1160,75 1180,95 1200,105 L1200,180 Z"/>
  <path fill="none" stroke="#334155" stroke-width="2" d="M0,145 C70,145 110,95 170,95 C230,95 270,135 340,115 C410,95 450,45 530,45 C610,45 650,125 730,100 C810,75 860,30 930,30 C1000,30 1050,100 1120,85 C1160,75 1180,95 1200,105"/>
</svg>
