<svg xmlns="http://www.w3.org/2000/svg" width="1440" height="120" viewBox="0 0 1440 120" xmlns:c2pa="http://c2pa.org/manifest"><metadata><c2pa:manifest>AAAWgmp1bWIAAAAeanVtZGMycGEAEQAQgAAAqgA4m3EDYzJwYQAAABZcanVtYgAAAEdqdW1kYzJtYQARABCAAACqADibcQN1cm46YzJwYTo4ZGY2OTQ4Ny1iMzM0LTQzMGItOTVlNi1hM2Q5M2NjOTM5MWQAAAADl2p1bWIAAAApanVtZGMyYXMAEQAQgAAAqgA4m3EDYzJwYS5hc3NlcnRpb25zAAAAALxqdW1iAAAARGp1bWRjYm9yABEAEIAAAKoAOJtxE2MycGEuaW5ncmVkaWVudC52MwAAAAAYYzJzaB8bHpSLyTMkUmdOqTuLDlsAAABwY2JvcqNpZGM6Zm9ybWF0bWltYWdlL3N2Zyt4bWxqaW5zdGFuY2VJRHgseG1wOmlpZDoxMjAyNWM3Mi0zMmI3LTQzNmMtYjQ1MC0wMDEyZjUyYmJmYzFscmVsYXRpb25zaGlwaHBhcmVudE9mAAAB4mp1bWIAAABBanVtZGNib3IAEQAQgAAAqgA4m3ETYzJwYS5hY3Rpb25zLnYyAAAAABhjMnNoYA70KsMjVomwYeEgbH65HgAAAZljYm9yomdhY3Rpb25zgqJmYWN0aW9ua2MycGEub3BlbmVkanBhcmFtZXRlcnOha2luZ3JlZGllbnRzgaJjdXJseC1zZWxmI2p1bWJmPWMycGEuYXNzZXJ0aW9ucy9jMnBhLmluZ3JlZGllbnQudjNkaGFzaFgg0RrDmoX4vTnxe0ck6/lMJIaZmDuzlvkoqBDlSBn5anukZmFjdGlvbngdY29tLmFudGhyb3BpYy5jbGF1ZGUucHJvdmlkZWRqcGFyYW1ldGVyc6F4H2NvbS5hbnRocm9waWMub3JpZ2luLWNvbmZpZGVuY2VndW5rbm93bmtkZXNjcmlwdGlvbnhmQ2xhdWRlIHByb3ZpZGVkIHRoaXMgZmlsZSBhdCB0aGUgcmVxdWVzdCBvZiBhIHVzZXIgYW5kIG1heSBoYXZlIGNyZWF0ZWQgb3IgbW9kaWZpZWQgdGhlIGZpbGUgY29udGVudHMubXNvZnR3YXJlQWdlbnShZG5hbWVmQ2xhdWRlcmFsbEFjdGlvbnNJbmNsdWRlZPUAAADIanVtYgAAAEBqdW1kY2JvcgARABCAAACqADibcRNjMnBhLmhhc2guZGF0YQAAAAAYYzJzaIzyOzCsel0fWEf0oMe9NisAAACAY2JvcqVjYWxnZnNoYTI1NmNwYWRNAAAAAAAAAAAAAAAAAGRoYXNoWCBPK66vjwFOx7WPTswvQ50+jVl7WsumBeyxVeKOnnfJQ2RuYW1lbmp1bWJmIG1hbmlmZXN0amV4Y2x1c2lvbnOBomVzdGFydBiYZmxlbmd0aBkeBAAAAj5qdW1iAAAAJ2p1bWRjMmNsABEAEIAAAKoAOJtxA2MycGEuY2xhaW0udjIAAAACD2Nib3KlY2FsZ2ZzaGEyNTZpc2lnbmF0dXJleE1zZWxmI2p1bWJmPS9jMnBhL3VybjpjMnBhOjhkZjY5NDg3LWIzMzQtNDMwYi05NWU2LWEzZDkzY2M5MzkxZC9jMnBhLnNpZ25hdHVyZWppbnN0YW5jZUlEeCx4bXA6aWlkOmM5YjJmMDYzLTYzNTQtNDY3MS04YjQ2LWZkMDhmMzNmOTc5M3JjcmVhdGVkX2Fzc2VydGlvbnODomN1cmx4LXNlbGYjanVtYmY9YzJwYS5hc3NlcnRpb25zL2MycGEuaW5ncmVkaWVudC52M2RoYXNoWCDRGsOahfi9OfF7RyTr+UwkhpmYO7OW+SioEOVIGflqe6JjdXJseCpzZWxmI2p1bWJmPWMycGEuYXNzZXJ0aW9ucy9jMnBhLmFjdGlvbnMudjJkaGFzaFggGg6LC2sNX5hcoWL3O64OA3C6Xa6zq5yhLGZ2ZSHkicOiY3VybHgpc2VsZiNqdW1iZj1jMnBhLmFzc2VydGlvbnMvYzJwYS5oYXNoLmRhdGFkaGFzaFgg7L7bLHprGzW6jE3bkXQOKj2hTmYRcDi1uffub6Qo+FZ0Y2xhaW1fZ2VuZXJhdG9yX2luZm+jZG5hbWVvQW50aHJvcGljIEZpbGVzZ3ZlcnNpb25lMS4wLjBrc3BlY1ZlcnNpb25lMi40LjAAABA4anVtYgAAAChqdW1kYzJjcwARABCAAACqADibcQNjMnBhLnNpZ25hdHVyZQAAABAIY2JvctKEWQISogEmGCFZAgowggIGMIIBjaADAgECAhRA5aAK7sI50L64g/oGQgU9Z1UTADAKBggqhkjOPQQDAzBJMRcwFQYDVQQKEw5BbnRocm9waWMsIFBCQzEuMCwGA1UEAxMlQW50aHJvcGljIENvbnRlbnQgQ3JlZGVudGlhbHMgUm9vdCBDQTAeFw0yNjA4MDcxODQzNTZaFw0yODA4MDYxOTQzNTZaMEQxFzAVBgNVBAoTDkFudGhyb3BpYywgUEJDMSkwJwYDVQQDEyBBbnRocm9waWMgQ2xhdWRlIENvbnRlbnQgU2lnbmluZzBZMBMGByqGSM49AgEGCCqGSM49AwEHA0IABJh6CmvLUBgFFNU0vUKlOVtE6djd17L5SuwX0LemFisBM3dkd/3cyjxFA3Qo5S46fX0/ihY0VZ7mfb9KF703t5OjWDBWMA4GA1UdDwEB/wQEAwIHgDAVBgNVHSUEDjAMBgorBgEEAYPoXgIBMAwGA1UdEwEB/wQCMAAwHwYDVR0jBBgwFoAUzlHiBIFOZFsj+OPEz5o+nMHXXMIwCgYIKoZIzj0EAwMDZwAwZAIwMXMdFJ4BetLLVY7ORuE9noqbbAZOZn/aArXyTwFAZfKrPzxF2vPoJNf1+UCdg1XGAjBwX1zd9WGqYkqmL5SFqw1QySjr1zJfpJM9+1rdDwSPLMOPOjKuiXjoU/pUUeG9RwmhY3BhZFkNngAAAAAAAAAAAAAAAAAAAAAAAAAAAAAAAAAAAAAAAAAAAAAAAAAAAAAAAAAAAAAAAAAAAAAAAAAAAAAAAAAAAAAAAAAAAAAAAAAAAAAAAAAAAAAAAAAAAAAAAAAAAAAAAAAAAAAAAAAAAAAAAAAAAAAAAAAAAAAAAAAAAAAAAAAAAAAAAAAAAAAAAAAAAAAAAAAAAAAAAAAAAAAAAAAAAAAAAAAAAAAAAAAAAAAAAAAAAAAAAAAAAAAAAAAAAAAAAAAAAAAAAAAAAAAAAAAAAAAAAAAAAAAAAAAAAAAAAAAAAAAAAAAAAAAAAAAAAAAAAAAAAAAAAAAAAAAAAAAAAAAAAAAAAAAAAAAAAAAAAAAAAAAAAAAAAAAAAAAAAAAAAAAAAAAAAAAAAAAAAAAAAAAAAAAAAAAAAAAAAAAAAAAAAAAAAAAAAAAAAAAAAAAAAAAAAAAAAAAAAAAAAAAAAAAAAAAAAAAAAAAAAAAAAAAAAAAAAAAAAAAAAAAAAAAAAAAAAAAAAAAAAAAAAAAAAAAAAAAAAAAAAAAAAAAAAAAAAAAAAAAAAAAAAAAAAAAAAAAAAAAAAAAAAAAAAAAAAAAAAAAAAAAAAAAAAAAAAAAAAAAAAAAAAAAAAAAAAAAAAAAAAAAAAAAAAAAAAAAAAAAAAAAAAAAAAAAAAAAAAAAAAAAAAAAAAAAAAAAAAAAAAAAAAAAAAAAAAAAAAAAAAAAAAAAAAAAAAAAAAAAAAAAAAAAAAAAAAAAAAAAAAAAAAAAAAAAAAAAAAAAAAAAAAAAAAAAAAAAAAAAAAAAAAAAAAAAAAAAAAAAAAAAAAAAAAAAAAAAAAAAAAAAAAAAAAAAAAAAAAAAAAAAAAAAAAAAAAAAAAAAAAAAAAAAAAAAAAAAAAAAAAAAAAAAAAAAAAAAAAAAAAAAAAAAAAAAAAAAAAAAAAAAAAAAAAAAAAAAAAAAAAAAAAAAAAAAAAAAAAAAAAAAAAAAAAAAAAAAAAAAAAAAAAAAAAAAAAAAAAAAAAAAAAAAAAAAAAAAAAAAAAAAAAAAAAAAAAAAAAAAAAAAAAAAAAAAAAAAAAAAAAAAAAAAAAAAAAAAAAAAAAAAAAAAAAAAAAAAAAAAAAAAAAAAAAAAAAAAAAAAAAAAAAAAAAAAAAAAAAAAAAAAAAAAAAAAAAAAAAAAAAAAAAAAAAAAAAAAAAAAAAAAAAAAAAAAAAAAAAAAAAAAAAAAAAAAAAAAAAAAAAAAAAAAAAAAAAAAAAAAAAAAAAAAAAAAAAAAAAAAAAAAAAAAAAAAAAAAAAAAAAAAAAAAAAAAAAAAAAAAAAAAAAAAAAAAAAAAAAAAAAAAAAAAAAAAAAAAAAAAAAAAAAAAAAAAAAAAAAAAAAAAAAAAAAAAAAAAAAAAAAAAAAAAAAAAAAAAAAAAAAAAAAAAAAAAAAAAAAAAAAAAAAAAAAAAAAAAAAAAAAAAAAAAAAAAAAAAAAAAAAAAAAAAAAAAAAAAAAAAAAAAAAAAAAAAAAAAAAAAAAAAAAAAAAAAAAAAAAAAAAAAAAAAAAAAAAAAAAAAAAAAAAAAAAAAAAAAAAAAAAAAAAAAAAAAAAAAAAAAAAAAAAAAAAAAAAAAAAAAAAAAAAAAAAAAAAAAAAAAAAAAAAAAAAAAAAAAAAAAAAAAAAAAAAAAAAAAAAAAAAAAAAAAAAAAAAAAAAAAAAAAAAAAAAAAAAAAAAAAAAAAAAAAAAAAAAAAAAAAAAAAAAAAAAAAAAAAAAAAAAAAAAAAAAAAAAAAAAAAAAAAAAAAAAAAAAAAAAAAAAAAAAAAAAAAAAAAAAAAAAAAAAAAAAAAAAAAAAAAAAAAAAAAAAAAAAAAAAAAAAAAAAAAAAAAAAAAAAAAAAAAAAAAAAAAAAAAAAAAAAAAAAAAAAAAAAAAAAAAAAAAAAAAAAAAAAAAAAAAAAAAAAAAAAAAAAAAAAAAAAAAAAAAAAAAAAAAAAAAAAAAAAAAAAAAAAAAAAAAAAAAAAAAAAAAAAAAAAAAAAAAAAAAAAAAAAAAAAAAAAAAAAAAAAAAAAAAAAAAAAAAAAAAAAAAAAAAAAAAAAAAAAAAAAAAAAAAAAAAAAAAAAAAAAAAAAAAAAAAAAAAAAAAAAAAAAAAAAAAAAAAAAAAAAAAAAAAAAAAAAAAAAAAAAAAAAAAAAAAAAAAAAAAAAAAAAAAAAAAAAAAAAAAAAAAAAAAAAAAAAAAAAAAAAAAAAAAAAAAAAAAAAAAAAAAAAAAAAAAAAAAAAAAAAAAAAAAAAAAAAAAAAAAAAAAAAAAAAAAAAAAAAAAAAAAAAAAAAAAAAAAAAAAAAAAAAAAAAAAAAAAAAAAAAAAAAAAAAAAAAAAAAAAAAAAAAAAAAAAAAAAAAAAAAAAAAAAAAAAAAAAAAAAAAAAAAAAAAAAAAAAAAAAAAAAAAAAAAAAAAAAAAAAAAAAAAAAAAAAAAAAAAAAAAAAAAAAAAAAAAAAAAAAAAAAAAAAAAAAAAAAAAAAAAAAAAAAAAAAAAAAAAAAAAAAAAAAAAAAAAAAAAAAAAAAAAAAAAAAAAAAAAAAAAAAAAAAAAAAAAAAAAAAAAAAAAAAAAAAAAAAAAAAAAAAAAAAAAAAAAAAAAAAAAAAAAAAAAAAAAAAAAAAAAAAAAAAAAAAAAAAAAAAAAAAAAAAAAAAAAAAAAAAAAAAAAAAAAAAAAAAAAAAAAAAAAAAAAAAAAAAAAAAAAAAAAAAAAAAAAAAAAAAAAAAAAAAAAAAAAAAAAAAAAAAAAAAAAAAAAAAAAAAAAAAAAAAAAAAAAAAAAAAAAAAAAAAAAAAAAAAAAAAAAAAAAAAAAAAAAAAAAAAAAAAAAAAAAAAAAAAAAAAAAAAAAAAAAAAAAAAAAAAAAAAAAAAAAAAAAAAAAAAAAAAAAAAAAAAAAAAAAAAAAAAAAAAAAAAAAAAAAAAAAAAAAAAAAAAAAAAAAAAAAAAAAAAAAAAAAAAAAAAAAAAAAAAAAAAAAAAAAAAAAAAAAAAAAAAAAAAAAAAAAAAAAAAAAAAAAAAAAAAAAAAAAAAAAAAAAAAAAAAAAAAAAAAAAAAAAAAAAAAAAAAAAAAAAAAAAAAAAAAAAAAAAAAAAAAAAAAAAAAAAAAAAAAAAAAAAAAAAAAAAAAAAAAAAAAAAAAAAAAAAAAAAAAAAAAAAAAAAAAAAAAAAAAAAAAAAAAAAAAAAAAAAAAAAAAAAAAAAAAAAAAAAAAAAAAAAAAAAAAAAAAAAAAAAAAAAAAAAAAAAAAAAAAAAAAAAAAAAAAAAAAAAAAAAAAAAAAAAAAAAAAAAAAAAAAAAAAAAAAAAAAAAAAAAAAAAAAAAAAAAAAAAAAAAAAAAAAAAAAAAAAAAAAAAAAAAAAAAAAAAAAAAAAAAAAAAAAAAAAAAAAAAAAAAAAAAAAAAAAAAAAAAAAAAAAAAAAAAAAAAAAAAAAAAAAAAAAAAAAAAAAAAAAAAAAAAAAAAAAAAAAAAAAAAAAAAAAAAAAAAAAAAAAAAAAAAAAAAAAAAAAAAAAAAAAAAAAAAAAAAAAAAAAAAAAAAAAAAAAAAAAAAAAAAAAAAAAAAAAAAAAAAAAAAAAAAAAAAAAAAAAAAAAAAAAAAAAAAAAAAAAAAAAAAAAAAAAAAAAAAAAAAAAAAAAAAAAAAAAAAAAAAAAAAAAAAAAAAAAAAAAAAAAAAAAAAAAAAAAAAAAAAAAAAAAAAAAAAAAAAAAAAAAAAAAAAAAAAAAAAAAAAAAAAAAAAAAAAAAAAAAAAAAAAAAAAAAAAAAAAAAAAAAAAAAAAAAAAAAAAAAAAAAAAAAAAAAAAAAAAAAAAAAAAAAAAAAAAAAAAAAAAAAAAAAAAAAAAAAAAAAAAAAAAAAAAAAAAAAAAAAAAAAAAAAAAAAAAAAAAAAAAAAAAAAAAAAAAAAAAAAAAAAAAAAAAAAAAAAAAAAAAAAAAAAAAAAAAAAAAAAAAAAAAAAAAAAAAAAAAAAAAAAAAAAAAAAAAAAAAAAAAAAAAAAAAAAAAAAAAAAAAAAAAAAAAAAAAAAAAAAAAAAAAAAAAAAAAAAAAAAAAAAAAAAAAAAAAAAAAAAAAAAAAAAAAAAAAAAAAAAAAAAAAAAAAAAAAAAAAAAAAAAAAAAAAAAAAAAAAAAAAAAAAAAAAAAAAAAAAAAAAAAAAAAAAAAAAAAAAAAAAAAAAAAAAAAAAAAAAAAAAAAAAAAAAAAAAAAAAAAAAAAAAAAAAAAAAAAAAAAAAAAAAAAAAAAAAAAAAAAAAAAAAAAAAAAAAAAAAAAAAAAAAAAAAAAAAAAAAAAAAAAAAAAAAAAAAAAAAAAAAAAAAAAAAAAAAAAAAAAAAAAAAAAAAAAAAAAAAAAAAAAAAAAAAAAAAAAAAAAAAAAAAAAAAAAAAAAAAAAAAAAAAAAAAAAAAAAAAAAAAAAAAAAAAAAAAAAAAAAAAAAAAAAAAAAAAAAAAAAAAAAAAAAAAAAAAAAAAAAAAAAAAAAAAAAAAAAAAAAAAAAAAAAAAAAAAAAAAAAAAAAAAAAAAAAAAAAAAAAAAAAAAAAAAAAAAAAAAAAAAAAAAAAAAAAAAAAAAAAAAAAAAAAAAAAAAAAAAAAAAAAAAAAAAAAAAAAAAAAAAAAAAAAAAAAAAPZYQLBUlbFfX/uZgWBr+Wt1AuJI9LKG346w99rCzfEsOfso834Twak6GN1l7K0vauHSSf14ENDXHUXy36hW249c+fg=</c2pa:manifest></metadata><path d="M-2,122 L-2,87.8 L0,87.8 L10,82 L20,73.3 L31,65.9 L41,57.1 L51,46.6 L61,37.8 L72,27.8 L82,16.8 L90,27.3 L97,36.5 L105,48.4 L113,58 L121,68.6 L128,77 L136,87.1 L144,97.7 L149,89.6 L154,83 L159,73.6 L165,65.8 L170,57.1 L175,48.4 L180,39.7 L185,29.4 L198,39.4 L211,48 L224,55.1 L237,64.5 L249,70.5 L262,79 L275,85.9 L288,93.8 L299,83.5 L311,71.3 L322,62.1 L334,53.1 L345,43.8 L357,34.4 L368,24.7 L380,15.8 L386,26.3 L393,36 L399,43.4 L406,52.5 L412,59 L419,67 L425,76.1 L432,84 L441,75.8 L451,66.5 L460,56.3 L470,48.3 L479,41 L489,32.5 L498,23.5 L508,17 L516,28.9 L525,40.9 L533,50.9 L542,61.9 L550,70.5 L559,80.2 L567,89.6 L576,97.6 L585,91.9 L593,85.1 L602,78.9 L610,71.5 L619,62.1 L627,53.6 L636,45.6 L644,38.6 L654,44.4 L663,48.1 L673,49.5 L682,53.1 L692,58.6 L701,63.7 L711,70 L720,74.8 L726,67.5 L731,60.1 L737,50.8 L742,43.2 L748,34.5 L753,26.1 L759,17.9 L764,10.2 L777,21.9 L789,36.7 L802,44.7 L814,56.2 L827,67 L839,79.7 L852,90 L864,99.8 L874,91.1 L885,83 L895,72.3 L906,64.2 L916,54.6 L927,46.8 L937,38.6 L948,31 L955,39.8 L963,47.9 L970,54.6 L978,60.7 L985,67.5 L993,75.4 L1000,82.5 L1008,89.9 L1020,87.4 L1031,81.5 L1043,74.5 L1055,69 L1067,62.3 L1078,58.4 L1090,50.6 L1102,44.8 L1108,51.9 L1114,60.5 L1121,67.5 L1127,76 L1133,81.1 L1139,86.4 L1146,92.7 L1152,100.2 L1164,90.3 L1177,79.5 L1189,70.5 L1201,58.6 L1213,48.7 L1226,37.7 L1238,31.4 L1250,23.6 L1256,32.1 L1262,42.1 L1267,49.8 L1273,58.2 L1279,67.7 L1285,77.3 L1290,88.1 L1296,99.3 L1309,87.6 L1322,73 L1335,58.7 L1347,44.6 L1360,35.1 L1373,27.1 L1386,16.3 L1399,4.7 L1404,14.8 L1409,24.2 L1414,34.9 L1419,45.2 L1425,55.5 L1430,65.2 L1435,76.2 L1440,87.8 L1442,87.8 L1442,122 Z" fill="#00e676" fill-opacity="0.2" stroke="#00e676" stroke-opacity="0.7" stroke-width="1.2" stroke-linejoin="round"/><path d="M-2,122 L-2,105.2 L0,105.2 L6,99.3 L11,96 L17,89.2 L23,81.2 L29,69.5 L34,60.5 L40,50.3 L46,42.9 L50,47 L53,52 L57,57.9 L61,66.3 L65,74.2 L68,84.6 L72,92 L76,99.4 L82,95.2 L87,91.3 L93,84.9 L99,75.9 L104,62.9 L110,52.6 L116,43.1 L122,37.1 L125,46.3 L129,55.4 L133,64.1 L137,73.9 L140,84.1 L144,95.4 L148,105 L152,115.9 L156,106.7 L161,95.4 L165,82.6 L170,71.6 L175,62.2 L179,53.3 L184,44.2 L188,36.2 L193,45.5 L198,54.4 L203,65.3 L208,77 L213,83.1 L218,91.2 L222,97.5 L227,104.7 L234,99 L240,95.2 L247,91.8 L253,84.2 L259,85.2 L266,83.1 L272,78.8 L279,74 L282,77.4 L285,81.3 L288,87.3 L291,92.1 L294,96.7 L297,102 L300,104.7 L303,108 L307,102.3 L311,94.2 L314,87.4 L318,80.4 L322,73.7 L325,65.7 L329,61.2 L333,54.4 L338,65.8 L344,74.3 L350,82 L356,88.2 L362,93 L367,95.2 L373,101.9 L379,106.1 L382,102.4 L384,96.9 L387,94.1 L390,91.1 L392,85.6 L395,79.7 L398,74.3 L401,69.3 L407,74.3 L414,80.1 L421,89.5 L428,96.4 L434,100.1 L441,107.6 L448,111.8 L455,111.4 L461,101.7 L468,91.1 L474,81.3 L481,69.6 L487,65.3 L494,60.1 L500,53.9 L507,44.3 L510,52.2 L513,61.4 L516,71.7 L519,81.4 L522,90.9 L525,98.3 L528,105.7 L531,113.5 L537,109.3 L542,101.6 L548,95.1 L554,88.9 L560,83.5 L566,76.7 L572,74.5 L578,72.9 L582,73.9 L585,77.2 L589,80.3 L592,84.9 L596,89 L599,92.8 L603,98.3 L606,105.3 L609,100.8 L613,97 L616,92.9 L619,88.3 L622,86.8 L625,83.8 L629,81.2 L632,79.1 L638,81.2 L644,83.9 L651,86.3 L657,92.6 L663,92.7 L670,96.9 L676,98.3 L682,100.7 L686,98 L689,94.6 L693,89.6 L696,86.5 L700,83.7 L703,78.4 L707,74.8 L710,69.4 L716,74.1 L722,79.4 L728,81.1 L734,83.6 L740,89.4 L746,92.2 L752,94.9 L758,98.7 L764,89.6 L770,83.8 L777,81.2 L783,77.5 L789,72.9 L796,67.7 L802,68.1 L808,66 L811,71.2 L815,75.5 L818,79.7 L821,86 L824,89.6 L827,92.6 L830,94.8 L834,99.1 L839,91 L843,85.8 L848,77.7 L853,70.3 L858,67 L863,62.1 L868,53.6 L873,48.3 L877,56.1 L882,64 L887,70.6 L891,76.7 L896,85.4 L900,92.9 L905,101.3 L909,112.7 L916,101.3 L923,89.8 L929,82.7 L936,73.6 L942,67.9 L949,61.9 L955,56.6 L962,47.7 L965,54.2 L968,61.2 L971,69.3 L974,77.1 L977,82.4 L979,86.9 L982,92.4 L985,99 L992,90.5 L998,85 L1004,81.8 L1011,74.4 L1017,71.3 L1024,68.5 L1030,68 L1036,65.6 L1039,70.5 L1042,77.3 L1046,83.7 L1049,91.3 L1052,96.8 L1055,101.2 L1058,106 L1061,109.9 L1064,105.9 L1068,100.4 L1071,95.4 L1074,92.7 L1078,88.7 L1081,83.7 L1084,77.9 L1088,72.6 L1094,77.6 L1100,82.4 L1106,86.6 L1112,92 L1118,96.2 L1125,101.3 L1131,107.2 L1137,115.2 L1141,106.7 L1145,96 L1149,86.8 L1152,78.9 L1156,73.2 L1160,66.4 L1164,59 L1168,51.7 L1174,59.3 L1179,65.6 L1185,76.9 L1190,86.5 L1196,93.3 L1202,100.3 L1207,108.4 L1213,116.3 L1218,108.4 L1224,99.3 L1229,90.5 L1235,83.6 L1240,80.2 L1246,77.4 L1251,72.4 L1256,63.8 L1260,70.1 L1264,75 L1268,81 L1272,86.8 L1276,92.3 L1280,100.2 L1284,104.4 L1288,110.8 L1294,104 L1301,97.6 L1307,94.4 L1313,87.2 L1319,78.7 L1325,72.6 L1331,65.2 L1337,57.3 L1340,63.5 L1344,70 L1347,77.4 L1351,85.7 L1354,91.3 L1357,97.5 L1361,104.2 L1364,110.7 L1369,101.5 L1374,95 L1378,89.4 L1383,83.1 L1388,74.9 L1392,66.1 L1397,55.4 L1401,47.1 L1406,56.3 L1411,63.5 L1416,73.3 L1421,81.8 L1426,85.7 L1430,91.9 L1435,100 L1440,105.2 L1442,105.2 L1442,122 Z" fill="#00e676" fill-opacity="0.34" stroke="#00e676" stroke-opacity="0.95" stroke-width="1.2" stroke-linejoin="round"/></svg>